<svg width="60" height="79" viewBox="0 0 60 79" fill="none" xmlns="http://www.w3.org/2000/svg">
<path d="M58.9736 70.3592C59.2347 69.8725 59.0518 69.2663 58.5652 69.0052L50.6345 64.7503C50.1478 64.4891 49.5417 64.672 49.2806 65.1587C49.0194 65.6453 49.2023 66.2515 49.689 66.5126L56.7384 70.2948L52.9563 77.3443C52.6952 77.8309 52.878 78.4371 53.3647 78.6982C53.8513 78.9593 54.4575 78.7765 54.7186 78.2898L58.9736 70.3592ZM5.16092 0.546063C4.19315 0.294228 4.19297 0.294922 4.1927 0.295967C4.19249 0.296785 4.19212 0.298183 4.1917 0.299817C4.19086 0.303087 4.18965 0.307759 4.18809 0.313821C4.18497 0.325945 4.18044 0.343629 4.17456 0.366774C4.1628 0.413064 4.14563 0.481199 4.12353 0.570384C4.07933 0.74875 4.0154 1.01133 3.93559 1.35177C3.77597 2.03261 3.55273 3.02504 3.29652 4.27813C2.78423 6.78377 2.13955 10.3344 1.60834 14.5218C0.547628 22.883 -0.0686588 33.8422 1.75928 44.1039C3.58561 54.3566 7.88394 64.0738 16.7948 69.6989C25.7122 75.3281 38.9858 76.6943 58.3812 70.8438L57.8036 68.929C38.6885 74.6949 26.0904 73.2017 17.8624 68.0077C9.62793 62.8096 5.5072 53.7397 3.72829 43.7532C1.95098 33.7757 2.54327 23.0437 3.59244 14.7735C4.11616 10.6451 4.75175 7.14495 5.25599 4.67875C5.50805 3.44591 5.72714 2.47216 5.88279 1.80829C5.96061 1.47637 6.02255 1.22197 6.06481 1.05144C6.08594 0.966181 6.10214 0.90189 6.11295 0.859366C6.11835 0.838105 6.12241 0.822285 6.12505 0.812007C6.12637 0.806868 6.12734 0.803114 6.12795 0.800759C6.12825 0.79958 6.12844 0.798866 6.12859 0.798275C6.12869 0.79791 6.12869 0.797897 5.16092 0.546063Z" fill="#A6A6A6"/>
</svg>
