<svg width="611" height="476" viewBox="0 0 611 476" fill="none" xmlns="http://www.w3.org/2000/svg">
<path d="M609.981 277.439L473.824 206.605L402.991 342.762L539.148 413.596L609.981 277.439Z" stroke="#FE601B" stroke-width="1.9508" stroke-miterlimit="10" stroke-linecap="round" stroke-linejoin="round"/>
<path d="M111.604 27.0295C126.314 9.89042 148.874 -0.0382906 173.056 2.3529C212.424 6.24495 241.184 41.3161 237.292 80.6848C233.399 120.053 198.329 148.813 158.96 144.921C119.591 141.029 90.8318 105.958 94.7239 66.589" stroke="#FE601B" stroke-width="2.1848" stroke-miterlimit="10" stroke-linecap="round" stroke-linejoin="round"/>
<path d="M498.467 3.01917L509.377 40.0571L539.974 16.5056L527.032 52.8832L565.629 51.8151L533.775 73.6369L565.629 95.4599L527.032 94.3918L539.974 130.769L509.377 107.218L498.467 144.256L487.555 107.218L456.958 130.769L469.9 94.3918L431.305 95.4599L463.157 73.6369L431.305 51.8151L469.9 52.8832L456.958 16.5056L487.555 40.0571L498.467 3.01917Z" fill="#B1E600"/>
<path d="M245.683 291.719C184.814 219.038 118.81 283.105 124.073 347.124C129.335 411.143 22.9813 443.2 0 369.411L245.683 291.719Z" fill="#0240B8"/>
<path d="M299.071 328.893V353.98L294.925 475.044H469.876L416.567 310L377.02 320.781" fill="#373562"/>
<path d="M377.207 474.046L367.743 405.021L347.394 397.133" stroke="white" stroke-width="2.1737" stroke-miterlimit="10" stroke-linecap="round" stroke-linejoin="round"/>
<path d="M337.347 42.2645C343.293 31.5925 385.141 27.4799 393.543 63.4391C399.347 88.278 402.142 116.829 403.317 132.111C403.803 138.428 399.583 144.142 393.403 145.535L365.189 151.895L363.046 108.509L328.583 109.173L337.417 151.918L296.846 138.638C288.936 135.592 284.868 126.822 287.653 118.816C294.594 98.8659 306.848 63.9133 311.524 52.2715C318.206 35.6316 337.347 42.2645 337.347 42.2645Z" fill="#373562"/>
<path d="M328.478 133.699L330.836 155.864L309.141 158.059L347.144 235.804L389.279 158.277L369.508 155.886V121.201L328.478 133.699Z" fill="#FFE9DF"/>
<path d="M325.479 136.377C325.479 136.377 334.904 142.086 356.156 137.185C351.351 157.28 330.836 155.866 330.836 155.866L329.185 139.949L325.479 136.377Z" fill="#373562"/>
<path d="M383.572 100.938L376.253 121.182C373.989 127.435 369.294 132.497 363.243 135.22L349.38 141.477C345.277 143.324 340.759 144.005 336.288 143.454L330.003 142.68C325.932 142.179 322.272 139.933 320.008 136.518L317.565 132.839C314.839 128.763 312.97 124.219 312 119.484C311.298 116.125 311.061 112.657 311.305 109.204L311.745 102.938L313.862 72.3862L320.362 54.8761L337.69 51.0978L383.572 100.938Z" fill="#FFE9DF"/>
<path d="M332.761 44.7351C321.772 54.7978 342.661 101.365 383.126 93.0426C391.053 61.4687 381.058 50.0226 367.448 44.7826C353.837 39.5438 337.843 40.082 332.761 44.7351Z" fill="#373562"/>
<path d="M337.512 44.7778C329.59 62.8096 310.56 76.5047 310.56 76.5047C310.56 76.5047 315.232 32.7685 337.512 44.7778Z" fill="#373562"/>
<path d="M374.144 91.3829C374.144 91.3829 383.254 83.3178 389.137 90.5364C395.434 98.2636 390.658 111.632 376.676 110.702C362.693 109.771 369.849 96.1925 374.144 91.3829Z" fill="#FFE9DF"/>
<path d="M384.529 93.2157C377.755 91.3129 373.842 102.829 380.34 105.054" stroke="#373562" stroke-width="1.5581" stroke-miterlimit="10" stroke-linecap="round" stroke-linejoin="round"/>
<path d="M377.066 100.919C377.916 97.9886 380.254 97.7112 382.216 98.6122" stroke="#373562" stroke-width="1.5581" stroke-miterlimit="10" stroke-linecap="round" stroke-linejoin="round"/>
<path d="M318.285 84.5046C318.285 84.5046 329 90.1002 324.789 101.144C320.578 112.189 318.908 115.468 331.699 115.775" stroke="#E17362" stroke-width="1.9476" stroke-miterlimit="10" stroke-linecap="round" stroke-linejoin="round"/>
<path d="M346.191 96.336C346.006 97.8333 344.643 98.8979 343.147 98.713C341.65 98.528 340.585 97.1659 340.77 95.6686C340.955 94.1713 342.317 93.1067 343.814 93.2916C345.312 93.4753 346.375 94.8387 346.191 96.336Z" fill="#373562"/>
<path d="M319.644 95.8191C319.459 97.3164 318.096 98.381 316.6 98.1961C315.103 98.0123 314.038 96.649 314.223 95.1517C314.408 93.6544 315.77 92.5898 317.267 92.7747C318.764 92.9585 319.828 94.3218 319.644 95.8191Z" fill="#373562"/>
<path d="M349.909 118.263C349.909 118.263 346.623 122.99 341.151 119.75" stroke="#E17362" stroke-width="1.9476" stroke-miterlimit="10" stroke-linecap="round" stroke-linejoin="round"/>
<path d="M339.849 87.434C344.939 84.6812 352.003 87.134 352.841 92.5435" stroke="#373562" stroke-width="2.7267" stroke-miterlimit="10" stroke-linecap="round"/>
<path d="M310.296 84.4702C315.53 82.0019 322.447 84.8412 322.987 90.2887" stroke="#373562" stroke-width="2.7267" stroke-miterlimit="10" stroke-linecap="round"/>
<path d="M372.317 111.749C371.723 116.575 367.33 120.005 362.503 119.411C357.678 118.817 354.247 114.423 354.841 109.597C355.435 104.772 359.829 101.341 364.655 101.935C369.481 102.529 372.911 106.923 372.317 111.749Z" fill="#E69679"/>
<path d="M317.632 112.336C317.218 115.693 314.972 118.388 312.001 119.486C311.299 116.126 311.062 112.658 311.306 109.205L311.746 102.939C315.596 104.242 318.151 108.116 317.632 112.336Z" fill="#E69679"/>
<path d="M347.145 190.361C347.145 208.434 332.491 223.088 314.418 223.088C306.107 223.088 298.515 219.99 292.747 214.887C285.968 208.89 281.69 200.123 281.69 190.361C281.69 172.283 296.34 157.633 314.418 157.633C314.507 157.633 314.596 157.633 314.686 157.638C314.76 157.633 314.834 157.638 314.909 157.638C314.879 161.007 315.786 184.126 345.456 185.935C345.927 185.965 346.397 185.985 346.858 185.999C347.046 187.428 347.145 188.885 347.145 190.361Z" fill="#FF9B6F"/>
<path d="M295.656 163.543L211.613 214.367L240.485 272.914L336.029 214.934L295.656 163.543Z" fill="#FF9B6F"/>
<path d="M198.478 92.6597C207.998 114.448 214.505 123.027 189.537 131.798C164.568 140.571 166.363 118.459 160.141 98.9015C154.111 79.9498 161.363 83.5502 169.966 80.0067C178.571 76.4632 191.143 75.8728 198.478 92.6597Z" fill="#FFE9DF"/>
<path d="M195.225 86.7546C183.884 66.257 163.386 55.8826 146.684 70.3056C129.983 84.7298 129.983 85.4885 126.44 89.032C122.898 92.5743 126.567 97.0034 132.641 91.8156C138.714 86.6278 151.78 78.8923 151.78 78.8923L178.443 90.6775L195.225 86.7546Z" fill="#FFE9DF"/>
<path d="M146.806 81.9379C154.657 77.8976 160.73 86.7546 150.355 91.1825C139.979 95.6105 140.458 94.0041 134.715 97.2477C128.973 100.491 134.782 103.961 145.289 102.696C155.795 101.431 173.888 101.684 173.888 101.684C173.888 101.684 175.407 74.7335 159.718 74.8603C144.027 74.9872 146.806 81.9379 146.806 81.9379Z" fill="#FFE9DF"/>
<path d="M156.385 74.2711L143.563 84.1939" stroke="#E17362" stroke-width="1.9476" stroke-miterlimit="10" stroke-linecap="round" stroke-linejoin="round"/>
<path d="M169.333 101.052L149.975 102.258" stroke="#E17362" stroke-width="1.9476" stroke-miterlimit="10" stroke-linecap="round" stroke-linejoin="round"/>
<path d="M107.759 103.754L188.248 58.2939C190.074 57.2625 192.389 57.9074 193.421 59.732C194.452 61.5577 193.807 63.873 191.983 64.9032L111.493 110.364C111.248 110.503 110.97 110.576 110.687 110.576L106.298 110.585C105.017 110.587 104.225 109.186 104.888 108.089L107.161 104.334C107.307 104.093 107.513 103.892 107.759 103.754Z" fill="#373562"/>
<path d="M162.836 125.388C162.836 125.388 156.481 143.691 171.737 207.462C186.994 271.231 207.67 288.818 244.869 269.46C282.069 250.101 258.133 194.435 245.376 168.491C229.939 137.099 205.504 109.193 205.504 109.193L162.836 125.388Z" fill="#FF9B6F"/>
<path d="M233.507 274.853C251.348 271.958 263.463 255.147 260.568 237.305C257.672 219.464 240.862 207.347 223.021 210.243C205.18 213.138 193.064 229.949 195.96 247.791C198.855 265.632 215.666 277.749 233.507 274.853Z" fill="#FF9B6F"/>
<path d="M163.386 117.88L203.048 102.964L205.504 109.192L162.836 125.388L163.386 117.88Z" fill="#373562"/>
<path d="M193.906 263.121C205.646 283.884 234.954 276.27 252.349 265.715C269.744 255.159 296.189 239.11 296.189 239.11" stroke="#373562" stroke-width="2.9261" stroke-miterlimit="10" stroke-linecap="round"/>
<path d="M233.157 146.813C233.157 146.813 252.83 177.12 264.792 218.229" stroke="#373562" stroke-width="2.9261" stroke-miterlimit="10" stroke-linecap="round"/>
<path d="M166.507 137.702L167.097 122.013" stroke="#373562" stroke-width="2.0901" stroke-miterlimit="10" stroke-linecap="round"/>
<path d="M176.095 119.452L180.263 133.015" stroke="#373562" stroke-width="2.0901" stroke-miterlimit="10" stroke-linecap="round"/>
<path d="M186.472 115.959L193.355 127.431" stroke="#373562" stroke-width="2.0901" stroke-miterlimit="10" stroke-linecap="round"/>
<path d="M198.947 111.591L205.527 122.541" stroke="#373562" stroke-width="2.0901" stroke-miterlimit="10" stroke-linecap="round"/>
<path d="M299.451 259.314L288.745 302.409C284.01 321.466 298.243 339.971 317.877 340.285L391.254 341.46C411.496 341.783 426.438 322.672 421.241 303.106L408.481 255.076L299.451 259.314Z" fill="#FF9B6F"/>
<path d="M409.938 265.701C418.467 367.465 287.831 362.599 297.505 270.816C299.824 248.842 296.202 230.749 292.747 214.887C290.304 203.672 287.951 193.572 287.831 183.993C287.652 169.557 299.71 157.758 314.685 157.639C314.76 157.634 314.834 157.634 314.908 157.634V157.639C314.879 161.008 315.786 184.127 345.456 185.936C345.926 185.966 346.397 185.986 346.858 186C375.919 186.927 384.764 160.682 385.696 157.634H395.636C410.533 157.634 422.634 169.206 422.724 183.538C422.873 208.384 407.134 232.237 409.938 265.701Z" fill="#FF9B6F"/>
<path d="M352.41 340.838C382.222 340.838 406.39 317.588 406.39 288.907C406.39 260.226 382.222 236.975 352.41 236.975C322.597 236.975 298.43 260.226 298.43 288.907C298.43 317.588 322.597 340.838 352.41 340.838Z" fill="#FF9B6F"/>
<path d="M338.924 211.931H312.035V216.2H338.924V211.931Z" fill="white"/>
<path d="M383.037 292.941L407.087 321.589L403.281 324.878L378.482 296.537L383.037 292.941Z" fill="white"/>
<path d="M307.532 294.493L293.922 323.62L297.812 325.507L312.112 296.466L307.532 294.493Z" fill="white"/>
<path d="M389.027 260.505C389.027 260.505 362.857 278.365 340.923 289.246C318.988 300.128 326.7 275.328 338.027 268.496" stroke="#373562" stroke-width="2.5081" stroke-miterlimit="10" stroke-linecap="round"/>
<path d="M290.186 202.884C290.186 202.884 301.884 251.614 298.428 288.907" stroke="#373562" stroke-width="2.87" stroke-miterlimit="10" stroke-linecap="round"/>
<path d="M314.908 157.633C314.908 157.633 313.208 187.53 346.983 187.119" stroke="#373562" stroke-width="2.9261" stroke-miterlimit="10" stroke-linecap="round"/>
<path d="M430.306 209.906C439.662 194.442 434.709 174.321 419.244 164.965C403.779 155.61 383.659 160.562 374.303 176.027C364.947 191.492 369.9 211.613 385.365 220.968C400.83 230.324 420.951 225.371 430.306 209.906Z" fill="#FF9B6F"/>
<path d="M384.201 220.21L462.222 279.868L498.467 225.683L417.285 163.85L384.201 220.21Z" fill="#FF9B6F"/>
<path d="M387.423 223.948L438.413 262.285" stroke="#373562" stroke-width="2.9261" stroke-miterlimit="10" stroke-linecap="round"/>
<path d="M403.284 370.617C403.284 370.617 396.704 384.62 393.33 397.104C389.956 409.588 399.234 411.275 403.284 401.322C407.332 391.369 413.406 373.234 413.406 373.234L403.284 370.617Z" fill="#FFE9DF"/>
<path d="M413.473 389.313L421.538 416.175C421.538 416.175 421.072 431.242 420.945 437.757C420.818 444.272 428.736 448.249 430.244 436.612C431.752 424.975 431.873 412.58 431.873 412.58L429.171 390.629L413.473 389.313Z" fill="#FFE9DF"/>
<path d="M419.094 388.128L432.15 412.95C432.15 412.95 434.575 427.829 435.698 434.248C436.821 440.666 445.353 443.055 444.606 431.344C443.859 419.634 441.606 407.446 441.606 407.446L434.753 386.417L419.094 388.128Z" fill="#FFE9DF"/>
<path d="M422.347 386.707L439.275 404.766C439.275 404.766 444.828 416.857 447.288 422.056C449.748 427.254 457.567 427.286 454.186 417.498C450.805 407.709 446.03 397.865 446.03 397.865L435.269 381.58L422.347 386.707Z" fill="#FFE9DF"/>
<path d="M405.721 392.085L410.443 419.731C410.443 419.731 408.139 434.629 407.217 441.08C406.296 447.53 413.667 452.445 416.586 441.08C419.505 429.714 421.138 417.428 421.138 417.428V395.311L405.721 392.085Z" fill="#FFE9DF"/>
<path d="M435.988 382.595C435.988 382.595 450.993 404.611 438.147 405.116C425.301 405.622 403.665 408.092 405.878 389.775C408.093 371.459 406.658 373.23 406.658 373.23L435.988 382.595Z" fill="#FFE9DF"/>
<path d="M441.659 378.323L398.992 362.12L395.188 370.221L439.918 388.162L441.659 378.323Z" fill="#373562"/>
<path d="M419.093 405.021C419.093 405.021 421.16 408.28 418.422 409.799" stroke="#E17362" stroke-width="1.9476" stroke-miterlimit="10" stroke-linecap="round" stroke-linejoin="round"/>
<path d="M429.091 402.631C429.091 402.631 431.158 405.89 428.42 407.409" stroke="#E17362" stroke-width="1.9476" stroke-miterlimit="10" stroke-linecap="round" stroke-linejoin="round"/>
<path d="M438.646 400.244C438.646 400.244 440.713 403.503 437.975 405.021" stroke="#E17362" stroke-width="1.9476" stroke-miterlimit="10" stroke-linecap="round" stroke-linejoin="round"/>
<path d="M446.06 397.133C446.06 397.133 448.127 400.392 445.389 401.91" stroke="#E17362" stroke-width="1.9476" stroke-miterlimit="10" stroke-linecap="round" stroke-linejoin="round"/>
<path d="M441.659 378.323C441.659 378.323 458.92 380.701 489.83 322.874C520.74 265.048 515.491 226.223 481.6 216.478C452.378 208.076 440.822 230.725 433.147 258.599C423.858 292.326 398.994 362.121 398.994 362.121L441.659 378.323Z" fill="#FF9B6F"/>
<path d="M433.146 258.599L398.992 362.12" stroke="#373562" stroke-width="2.9261" stroke-miterlimit="10" stroke-linecap="round"/>
<path d="M406.32 370.617L413.473 353.98" stroke="#373562" stroke-width="2.0901" stroke-miterlimit="10" stroke-linecap="round"/>
<path d="M416.566 373.822L424.532 358.091" stroke="#373562" stroke-width="2.0901" stroke-miterlimit="10" stroke-linecap="round"/>
<path d="M426.642 374.621L434.217 362.646" stroke="#373562" stroke-width="2.0901" stroke-miterlimit="10" stroke-linecap="round"/>
<path d="M435.169 379.221L445.353 367.771" stroke="#373562" stroke-width="2.0901" stroke-miterlimit="10" stroke-linecap="round"/>
<path d="M472.409 279.954C490.451 278.877 504.203 263.377 503.126 245.335C502.049 227.293 486.55 213.54 468.508 214.617C450.466 215.694 436.714 231.194 437.791 249.236C438.869 267.278 454.368 281.031 472.409 279.954Z" fill="#FF9B6F"/>
</svg>
