<svg width="68" height="68" viewBox="0 0 68 68" fill="none" xmlns="http://www.w3.org/2000/svg">
<circle cx="34" cy="34" r="34" fill="#FFDED0"/>
<g clip-path="url(#clip0_84_4201)">
<path d="M41.5396 35.0621C41.2962 34.8682 40.9414 34.9086 40.7476 35.1522C40.5448 35.4071 40.3246 35.6536 40.0933 35.8848C39.6156 36.3626 39.0845 36.7823 38.5147 37.1326C38.2495 37.2955 38.1666 37.6428 38.3296 37.9079C38.436 38.0812 38.621 38.1765 38.8103 38.1765C38.911 38.1765 39.0129 38.1495 39.1049 38.093C39.7497 37.6967 40.3504 37.222 40.8904 36.682C41.1518 36.4207 41.4004 36.1423 41.6297 35.8542C41.8237 35.6106 41.7833 35.256 41.5396 35.0621Z" fill="#FE601B"/>
<path d="M43.169 29.2276C42.8577 29.2276 42.6053 29.48 42.6053 29.7913C42.6053 30.9721 42.3757 32.1118 41.9229 33.1785C41.8013 33.4651 41.9349 33.796 42.2215 33.9177C42.2935 33.9482 42.3681 33.9627 42.4416 33.9627C42.661 33.9627 42.8695 33.8338 42.9607 33.6191C43.473 32.4123 43.7327 31.1243 43.7327 29.7913C43.7327 29.48 43.4803 29.2276 43.169 29.2276Z" fill="#FE601B"/>
<path d="M46.9269 28.3257C46.6101 28.3257 46.2962 28.3561 45.9874 28.4142V27.3487H47.2275C47.5389 27.3487 47.7912 27.0963 47.7912 26.785V23.4781C47.7912 23.1668 47.539 22.9144 47.2275 22.9144H45.4238H22.5761H20.7724C20.461 22.9144 20.2087 23.1668 20.2087 23.4781V26.785C20.2087 27.0962 20.461 27.3487 20.7724 27.3487H22.0125V28.4142C21.7038 28.3561 21.3899 28.3257 21.073 28.3257C18.2757 28.3257 16 30.6015 16 33.3988C16 36.1961 18.2757 38.4718 21.073 38.4718C22.3594 38.4718 23.5766 37.9888 24.5077 37.1298C26.3435 39.5054 28.9982 41.0891 31.9332 41.5994V46.5412C29.2367 47.0089 26.7741 48.3893 24.9546 50.4633C24.8087 50.6296 24.7736 50.866 24.8649 51.0676C24.9563 51.2692 25.1571 51.3986 25.3784 51.3986H42.6216C42.8428 51.3986 43.0437 51.2691 43.1351 51.0676C43.2264 50.866 43.1912 50.6297 43.0454 50.4633C41.2259 48.3893 38.7633 47.0088 36.0668 46.5412V41.5994C39.0018 41.0891 41.6565 39.5053 43.4923 37.1298C44.4235 37.9888 45.6406 38.4718 46.927 38.4718C49.7243 38.4718 52 36.1961 52 33.3988C52 30.6015 49.7242 28.3257 46.9269 28.3257ZM21.336 26.2213V24.0418H22.5761H45.4237H46.6638V26.2213H45.4237H22.5761H21.336ZM46.9269 31.8581C47.7765 31.8581 48.4676 32.5493 48.4676 33.3988C48.4676 34.2483 47.7764 34.9395 46.9269 34.9395C46.12 34.9395 45.4638 34.3293 45.3946 33.5357C45.5051 33.1964 45.6018 32.8461 45.6829 32.4907C45.9733 32.093 46.4317 31.8581 46.9269 31.8581ZM22.6052 33.5357C22.5361 34.3293 21.8799 34.9395 21.073 34.9395C20.2234 34.9395 19.5323 34.2484 19.5323 33.3988C19.5323 32.5493 20.2235 31.8581 21.073 31.8581C21.5681 31.8581 22.0266 32.0931 22.3168 32.4908C22.398 32.8462 22.4947 33.1964 22.6052 33.5357ZM21.073 37.3445C18.8974 37.3445 17.1273 35.5744 17.1273 33.3988C17.1273 31.2231 18.8974 29.453 21.073 29.453C21.3913 29.453 21.7058 29.4919 22.0124 29.5669V29.7912C22.0124 30.1687 22.0311 30.5462 22.0661 30.9218C21.7554 30.7974 21.4195 30.7307 21.073 30.7307C19.6018 30.7307 18.4049 31.9275 18.4049 33.3988C18.4049 34.87 19.6018 36.0668 21.073 36.0668C21.944 36.0668 22.7145 35.6563 23.2007 35.0143C23.3962 35.4195 23.6138 35.8142 23.8545 36.1959C23.1176 36.9299 22.1247 37.3445 21.073 37.3445ZM41.2723 50.2714H26.7275C28.3566 48.8115 30.3897 47.8701 32.5701 47.5844C32.8506 47.5476 33.0605 47.3085 33.0605 47.0255V41.7788H34.9394V47.0255C34.9394 47.3085 35.1493 47.5476 35.4299 47.5844C37.6102 47.8701 39.6433 48.8115 41.2723 50.2714ZM42.9703 35.9327C42.97 35.9329 42.9699 35.9331 42.9698 35.9335C40.9486 38.8877 37.5955 40.6514 34 40.6514C30.4045 40.6514 27.0513 38.8877 25.0302 35.9335C25.03 35.9332 25.0298 35.933 25.0296 35.9327C24.4695 35.1138 24.0255 34.2242 23.7098 33.2882C23.585 32.9183 23.4782 32.5315 23.3924 32.1388C23.3924 32.1387 23.3923 32.1386 23.3922 32.1384C23.2248 31.3707 23.1399 30.5809 23.1399 29.7912V29.147V27.3487H44.8601V29.147V29.7912C44.8601 30.5809 44.7752 31.3707 44.6077 32.1384C44.6077 32.1386 44.6076 32.1387 44.6076 32.1388C44.5217 32.5315 44.4149 32.9182 44.2902 33.2882C43.9744 34.2242 43.5304 35.1139 42.9703 35.9327ZM46.9269 37.3445C45.8751 37.3445 44.8823 36.9299 44.1454 36.1959C44.3861 35.8142 44.6037 35.4195 44.7992 35.0143C45.2854 35.6562 46.0558 36.0668 46.9268 36.0668C48.398 36.0668 49.5949 34.87 49.5949 33.3988C49.5949 31.9275 48.398 30.7307 46.9268 30.7307C46.5802 30.7307 46.2443 30.7974 45.9336 30.9218C45.9687 30.5462 45.9874 30.1687 45.9874 29.7912V29.5669C46.2941 29.4917 46.6085 29.453 46.9268 29.453C49.1024 29.453 50.8725 31.223 50.8725 33.3988C50.8725 35.5745 49.1025 37.3445 46.9269 37.3445Z" fill="#FE601B"/>
<path d="M39.3423 32.3112C39.2633 32.0849 39.0498 31.9332 38.8101 31.9332H35.5974L34.5298 28.9974C34.4488 28.7747 34.2371 28.6264 34 28.6264C33.7629 28.6264 33.5513 28.7747 33.4702 28.9974L32.4026 31.9332H29.1899C28.9502 31.9332 28.7368 32.0849 28.6577 32.3112C28.5788 32.5375 28.6515 32.7891 28.8393 32.9382L31.5545 35.0954L30.7505 38.0438C30.6866 38.2779 30.7797 38.5266 30.9816 38.6611C31.1835 38.7957 31.4489 38.7861 31.6404 38.637L33.9999 36.8019L36.3595 38.637C36.461 38.7159 36.5832 38.7558 36.7056 38.7558C36.8143 38.7558 36.9233 38.7244 37.0182 38.6611C37.2201 38.5265 37.3131 38.2779 37.2493 38.0438L36.4452 35.0954L39.1605 32.9382C39.3485 32.7892 39.4212 32.5375 39.3423 32.3112ZM35.4532 34.4439C35.2767 34.5842 35.2007 34.8161 35.2601 35.0335L35.717 36.709L34.3461 35.6429C34.2443 35.5637 34.1222 35.5241 34.0001 35.5241C33.8779 35.5241 33.7558 35.5637 33.654 35.6429L32.2832 36.709L32.7401 35.0335C32.7994 34.8161 32.7234 34.5841 32.5469 34.4438L30.8057 33.0605H32.7976C33.0345 33.0605 33.2463 32.9122 33.3274 32.6895L34.0001 30.8394L34.6728 32.6895C34.7538 32.9123 34.9655 33.0606 35.2026 33.0606H37.1945L35.4532 34.4439Z" fill="#FE601B"/>
<path d="M35.5031 18.1045H34.5636V17.165C34.5636 16.8537 34.3114 16.6013 33.9999 16.6013C33.6886 16.6013 33.4362 16.8536 33.4362 17.165V18.1045H32.4968C32.1855 18.1045 31.9331 18.3568 31.9331 18.6682C31.9331 18.9794 32.1854 19.2319 32.4968 19.2319H33.4362V20.1713C33.4362 20.4826 33.6885 20.735 33.9999 20.735C34.3113 20.735 34.5636 20.4826 34.5636 20.1713V19.2318H35.5031C35.8144 19.2318 36.0668 18.9794 36.0668 18.6681C36.0668 18.3568 35.8144 18.1045 35.5031 18.1045Z" fill="#FE601B"/>
<path d="M43.9206 18.1045H42.9811V17.165C42.9811 16.8537 42.7288 16.6013 42.4174 16.6013C42.1061 16.6013 41.8537 16.8536 41.8537 17.165V18.1045H40.9143C40.6029 18.1045 40.3506 18.3568 40.3506 18.6682C40.3506 18.9794 40.6029 19.2319 40.9143 19.2319H41.8537V20.1713C41.8537 20.4826 42.106 20.735 42.4174 20.735C42.7288 20.735 42.9811 20.4826 42.9811 20.1713V19.2318H43.9206C44.2319 19.2318 44.4843 18.9794 44.4843 18.6681C44.4843 18.3568 44.2319 18.1045 43.9206 18.1045Z" fill="#FE601B"/>
<path d="M27.6869 18.1045H26.7475V17.165C26.7475 16.8537 26.4952 16.6013 26.1838 16.6013C25.8724 16.6013 25.6201 16.8536 25.6201 17.165V18.1045H24.6806C24.3693 18.1045 24.1169 18.3568 24.1169 18.6682C24.1169 18.9794 24.3692 19.2319 24.6806 19.2319H25.6201V20.1713C25.6201 20.4826 25.8724 20.735 26.1838 20.735C26.4951 20.735 26.7475 20.4826 26.7475 20.1713V19.2318H27.6869C27.9983 19.2318 28.2506 18.9794 28.2506 18.6681C28.2506 18.3568 27.9983 18.1045 27.6869 18.1045Z" fill="#FE601B"/>
</g>
<defs>
<clipPath id="clip0_84_4201">
<rect width="36" height="36" fill="white" transform="translate(16 16)"/>
</clipPath>
</defs>
</svg>
