<svg width="68" height="68" viewBox="0 0 68 68" fill="none" xmlns="http://www.w3.org/2000/svg">
<circle cx="34" cy="34" r="34" fill="#DBE7FF"/>
<g clip-path="url(#clip0_84_4214)">
<path d="M45.7352 29.8722C46.9809 28.5577 47.75 26.7867 47.75 24.8333C47.75 20.7835 44.4665 17.5 40.4167 17.5C36.3668 17.5 33.0833 20.7835 33.0833 24.8333C33.0833 26.7867 33.8524 28.5577 35.0982 29.8722C34.2163 30.3599 33.4097 30.9649 32.6974 31.6662C31.7221 28.7622 28.9831 26.6667 25.75 26.6667C21.7002 26.6667 18.4167 29.9502 18.4167 34C18.4167 35.9534 19.1858 37.7244 20.4315 39.0389C17.0444 40.9135 14.75 44.5197 14.75 48.6667H36.75C36.75 44.8377 34.7938 41.4699 31.8275 39.5H51.4167C51.4167 35.353 49.1222 31.7468 45.7352 29.8722ZM36.75 24.8333C36.75 22.8112 38.3945 21.1667 40.4167 21.1667C42.4388 21.1667 44.0833 22.8112 44.0833 24.8333C44.0833 26.8555 42.4388 28.5 40.4167 28.5C38.3945 28.5 36.75 26.8555 36.75 24.8333ZM22.0833 34C22.0833 31.9778 23.7278 30.3333 25.75 30.3333C27.7722 30.3333 29.4167 31.9778 29.4167 34C29.4167 36.0222 27.7722 37.6667 25.75 37.6667C23.7278 37.6667 22.0833 36.0222 22.0833 34ZM19.4012 45C20.6708 42.8092 23.0413 41.3333 25.75 41.3333C28.4587 41.3333 30.8293 42.8092 32.0988 45H19.4012ZM34.0678 35.8333C35.3374 33.6425 37.7079 32.1667 40.4167 32.1667C43.1254 32.1667 45.4959 33.6425 46.7655 35.8333H34.0678Z" fill="#2B71FA"/>
</g>
<defs>
<clipPath id="clip0_84_4214">
<rect width="44" height="44" fill="white" transform="translate(12 12)"/>
</clipPath>
</defs>
</svg>
