<svg width="68" height="68" viewBox="0 0 68 68" fill="none" xmlns="http://www.w3.org/2000/svg">
<circle cx="34" cy="34" r="34" fill="#DBE7FF"/>
<g clip-path="url(#clip0_81_1136)">
<path d="M36.9628 18.0355C37.4645 17.4003 37.7747 16.5994 37.7747 15.7292C37.7747 13.6728 36.1069 12 34.0505 12C31.9942 12 30.3238 13.6728 30.3238 15.7292C30.3238 16.5996 30.59 17.4003 31.0914 18.0355C29.5561 19.0088 28.4995 20.722 28.4995 22.6705V27.2076C28.4995 27.8981 29.1304 28.4975 29.821 28.4975H38.2902C38.9808 28.4975 39.5007 27.8979 39.5007 27.2076V22.6705C39.5005 20.722 38.4984 19.0086 36.9628 18.0355Z" fill="#2B71FA"/>
<path d="M25.666 32.7583V28.2213C25.666 26.2729 24.7069 24.5594 23.1713 23.5863C23.673 22.9511 24.0047 22.1502 24.0047 21.28C24.0047 19.2236 22.3476 17.5508 20.2912 17.5508C18.2349 17.5508 16.5699 19.2238 16.5699 21.2801C16.5699 22.1505 16.8791 22.9513 17.3804 23.5865C15.845 24.5598 14.8315 26.2729 14.8315 28.2214V32.7585C14.8315 33.4491 15.3818 33.9981 16.0722 33.9981H24.5414C25.232 33.9979 25.666 33.4489 25.666 32.7583Z" fill="#2B71FA"/>
<path d="M50.6759 23.5866C51.1773 22.9513 51.5103 22.1504 51.5103 21.2802C51.5103 19.2238 49.8537 17.551 47.7973 17.551C45.741 17.551 44.0761 19.2238 44.0761 21.2802C44.0761 22.1506 44.3833 22.9513 44.8849 23.5866C43.3494 24.5598 42.334 26.273 42.334 28.2215V32.7586C42.334 33.4491 42.8884 33.9982 43.5789 33.9982H52.0482C52.7388 33.9982 53.1685 33.4491 53.1685 32.7586V28.2215C53.1685 26.273 52.2112 24.5597 50.6759 23.5866Z" fill="#2B71FA"/>
<path d="M36.9628 45.5804C37.4645 44.9452 37.7747 44.1445 37.7747 43.2742C37.7747 41.2179 36.1069 39.545 34.0505 39.545C31.9942 39.545 30.3238 41.2179 30.3238 43.2742C30.3238 44.1445 30.59 44.9454 31.0914 45.5806C29.5561 46.5538 28.4995 48.267 28.4995 50.2155V54.7526C28.4995 55.4432 29.1304 56 29.821 56H38.2902C38.9808 56 39.5007 55.443 39.5007 54.7526V50.2155C39.5005 48.2668 38.4984 46.5538 36.9628 45.5804ZM34.0555 42.0453C34.7331 42.0453 35.2845 42.5967 35.2845 43.2742C35.2845 43.9519 34.7331 44.5032 34.0555 44.5032C33.378 44.5032 32.8266 43.9518 32.8266 43.2742C32.8266 42.5967 33.3778 42.0453 34.0555 42.0453ZM37.0003 53.4998H30.9997V50.2155C30.9997 48.5697 32.3544 47.2309 34.0002 47.2309C35.6457 47.2309 37.0003 48.5697 37.0003 50.2155V53.4998Z" fill="#2B71FA"/>
<path d="M35.1667 35.0946V30.9519C35.1667 30.2613 34.6072 29.7018 33.9166 29.7018C33.2261 29.7018 32.6665 30.2613 32.6665 30.9519V35.0946C32.6665 35.7852 33.2261 36.3447 33.9166 36.3447C34.607 36.3447 35.1667 35.785 35.1667 35.0946Z" fill="#2B71FA"/>
<path d="M21.8896 35.365C21.3881 34.8905 20.5973 34.912 20.1221 35.4132C19.6474 35.9145 19.6691 36.7058 20.1703 37.1807L26.4557 43.1324C26.6976 43.3612 27.0066 43.4747 27.3151 43.4747C27.6463 43.4747 27.9772 43.3437 28.223 43.0842C28.6978 42.5828 28.6761 41.7916 28.1749 41.3167L21.8896 35.365Z" fill="#2B71FA"/>
<path d="M46.2103 35.3473L39.942 41.3127C39.4418 41.7885 39.4223 42.5799 39.8982 43.08C40.1439 43.3383 40.4736 43.4684 40.804 43.4684C41.1135 43.4684 41.4237 43.354 41.6655 43.1238L47.9338 37.1584C48.434 36.6826 48.4535 35.8913 47.9776 35.3913C47.5017 34.8907 46.7103 34.8716 46.2103 35.3473Z" fill="#2B71FA"/>
</g>
<defs>
<clipPath id="clip0_81_1136">
<rect width="44" height="44" fill="white" transform="translate(12 12)"/>
</clipPath>
</defs>
</svg>
