<svg width="90" height="102" viewBox="0 0 90 102" fill="none" xmlns="http://www.w3.org/2000/svg">
<g opacity="0.3">
<circle cx="3" cy="99" r="3" transform="rotate(90 3 99)" fill="#7CA8FF"/>
<circle cx="3" cy="83" r="3" transform="rotate(90 3 83)" fill="#7CA8FF"/>
<circle cx="3" cy="67" r="3" transform="rotate(90 3 67)" fill="#7CA8FF"/>
<circle cx="3" cy="51" r="3" transform="rotate(90 3 51)" fill="#7CA8FF"/>
<circle cx="3" cy="35" r="3" transform="rotate(90 3 35)" fill="#7CA8FF"/>
<circle cx="3" cy="19" r="3" transform="rotate(90 3 19)" fill="#7CA8FF"/>
<circle cx="3" cy="3" r="3" transform="rotate(90 3 3)" fill="#7CA8FF"/>
<circle cx="17" cy="99" r="3" transform="rotate(90 17 99)" fill="#7CA8FF"/>
<circle cx="17" cy="83" r="3" transform="rotate(90 17 83)" fill="#7CA8FF"/>
<circle cx="17" cy="67" r="3" transform="rotate(90 17 67)" fill="#7CA8FF"/>
<circle cx="17" cy="51" r="3" transform="rotate(90 17 51)" fill="#7CA8FF"/>
<circle cx="17" cy="35" r="3" transform="rotate(90 17 35)" fill="#7CA8FF"/>
<circle cx="17" cy="19" r="3" transform="rotate(90 17 19)" fill="#7CA8FF"/>
<circle cx="17" cy="3" r="3" transform="rotate(90 17 3)" fill="#7CA8FF"/>
<circle cx="31" cy="99" r="3" transform="rotate(90 31 99)" fill="#7CA8FF"/>
<circle cx="31" cy="83" r="3" transform="rotate(90 31 83)" fill="#7CA8FF"/>
<circle cx="31" cy="67" r="3" transform="rotate(90 31 67)" fill="#7CA8FF"/>
<circle cx="31" cy="51" r="3" transform="rotate(90 31 51)" fill="#7CA8FF"/>
<circle cx="31" cy="35" r="3" transform="rotate(90 31 35)" fill="#7CA8FF"/>
<circle cx="31" cy="19" r="3" transform="rotate(90 31 19)" fill="#7CA8FF"/>
<circle cx="31" cy="3" r="3" transform="rotate(90 31 3)" fill="#7CA8FF"/>
<circle cx="45" cy="99" r="3" transform="rotate(90 45 99)" fill="#7CA8FF"/>
<circle cx="45" cy="83" r="3" transform="rotate(90 45 83)" fill="#7CA8FF"/>
<circle cx="45" cy="67" r="3" transform="rotate(90 45 67)" fill="#7CA8FF"/>
<circle cx="59" cy="99" r="3" transform="rotate(90 59 99)" fill="#7CA8FF"/>
<circle cx="59" cy="83" r="3" transform="rotate(90 59 83)" fill="#7CA8FF"/>
<circle cx="59" cy="67" r="3" transform="rotate(90 59 67)" fill="#7CA8FF"/>
<circle cx="73" cy="99" r="3" transform="rotate(90 73 99)" fill="#7CA8FF"/>
<circle cx="73" cy="83" r="3" transform="rotate(90 73 83)" fill="#7CA8FF"/>
<circle cx="73" cy="67" r="3" transform="rotate(90 73 67)" fill="#7CA8FF"/>
<circle cx="87" cy="99" r="3" transform="rotate(90 87 99)" fill="#7CA8FF"/>
<circle cx="87" cy="83" r="3" transform="rotate(90 87 83)" fill="#7CA8FF"/>
<circle cx="87" cy="67" r="3" transform="rotate(90 87 67)" fill="#7CA8FF"/>
</g>
</svg>
