<svg width="83" height="66" viewBox="0 0 83 66" fill="none" xmlns="http://www.w3.org/2000/svg">
<path d="M5.10021 65.4839L5.10021 51.6119L13.0562 51.6119C19.3122 51.6119 22.4402 48.4839 22.4402 42.2279L22.4402 35.6999L18.9722 35.6999C13.5322 35.6999 9.04422 34.0679 5.50821 30.8039C1.83622 27.5399 0.000217303 23.3919 0.000217743 18.3599C0.000218218 12.9199 1.83622 8.49987 5.50821 5.09987C9.04422 1.69987 13.5322 -0.000128128 18.9722 -0.000127652C24.5482 -0.000127165 29.1042 1.69987 32.6402 5.09988C36.1762 8.63588 37.9442 13.3279 37.9442 19.1759L37.9442 42.6359C37.9442 57.8679 30.3282 65.4839 15.0962 65.4839L5.10021 65.4839ZM49.9802 65.4839L49.9802 51.6119L57.9362 51.6119C64.1922 51.6119 67.3202 48.4839 67.3202 42.2279L67.3202 35.6999L63.8522 35.6999C58.4122 35.6999 53.9242 34.0679 50.3882 30.8039C46.7162 27.5399 44.8802 23.3919 44.8802 18.3599C44.8802 12.9199 46.7162 8.49988 50.3882 5.09988C53.9242 1.69988 58.4122 -0.000124204 63.8522 -0.000123729C69.4282 -0.000123241 73.9842 1.69988 77.5202 5.09988C81.0562 8.63588 82.8242 13.3279 82.8242 19.1759L82.8242 42.6359C82.8242 57.8679 75.2082 65.4839 59.9762 65.4839L49.9802 65.4839Z" fill="#3C588E"/>
</svg>
